<mxfile host="app.diagrams.net" modified="2024-02-08T08:40:12.367Z" agent="Mozilla/5.0 (Windows NT 10.0; Win64; x64) AppleWebKit/537.36 (KHTML, like Gecko) Chrome/121.0.0.0 Safari/537.36" etag="SSMz6yS-vhtzlbG0gjAH" version="23.1.2" type="github">
  <diagram name="Page-1" id="MlDlxrWb5CEqYmZRVi0R">
    <mxGraphModel dx="2074" dy="1106" grid="1" gridSize="10" guides="1" tooltips="1" connect="1" arrows="1" fold="1" page="1" pageScale="1" pageWidth="850" pageHeight="1100" math="0" shadow="0">
      <root>
        <mxCell id="0" />
        <mxCell id="1" parent="0" />
        <mxCell id="oQyc2kmPpZnd0EM6YDhd-1" style="edgeStyle=orthogonalEdgeStyle;rounded=0;orthogonalLoop=1;jettySize=auto;html=1;exitX=1;exitY=0.5;exitDx=0;exitDy=0;entryX=0;entryY=0.5;entryDx=0;entryDy=0;" edge="1" parent="1" source="oQyc2kmPpZnd0EM6YDhd-5" target="oQyc2kmPpZnd0EM6YDhd-2">
          <mxGeometry relative="1" as="geometry">
            <mxPoint x="470" y="320" as="sourcePoint" />
          </mxGeometry>
        </mxCell>
        <mxCell id="oQyc2kmPpZnd0EM6YDhd-2" value="Render" style="rounded=0;whiteSpace=wrap;html=1;fillColor=#ffe6cc;strokeColor=#d79b00;" vertex="1" parent="1">
          <mxGeometry x="570" y="170" width="120" height="300" as="geometry" />
        </mxCell>
        <mxCell id="oQyc2kmPpZnd0EM6YDhd-3" style="edgeStyle=orthogonalEdgeStyle;rounded=0;orthogonalLoop=1;jettySize=auto;html=1;exitX=1;exitY=0.5;exitDx=0;exitDy=0;entryX=0;entryY=0.5;entryDx=0;entryDy=0;" edge="1" parent="1" source="oQyc2kmPpZnd0EM6YDhd-4" target="oQyc2kmPpZnd0EM6YDhd-5">
          <mxGeometry relative="1" as="geometry" />
        </mxCell>
        <mxCell id="oQyc2kmPpZnd0EM6YDhd-4" value="解码器&lt;br&gt;VideoDecoder" style="rounded=0;whiteSpace=wrap;html=1;fillColor=#dae8fc;strokeColor=#6c8ebf;" vertex="1" parent="1">
          <mxGeometry x="100" y="170" width="120" height="300" as="geometry" />
        </mxCell>
        <mxCell id="oQyc2kmPpZnd0EM6YDhd-5" value="Frame" style="rounded=1;whiteSpace=wrap;html=1;fillColor=#d5e8d4;strokeColor=#82b366;" vertex="1" parent="1">
          <mxGeometry x="330" y="265" width="120" height="110" as="geometry" />
        </mxCell>
      </root>
    </mxGraphModel>
  </diagram>
</mxfile>
